HIERARCHY
ROOT Hips
{
	OFFSET 0.000000 103.266502 0.000000
	CHANNELS 6 Xposition Yposition Zposition Xrotation Yrotation Zrotation 
	JOINT Spine
	{
		OFFSET -0.002400 12.777504 0.315300
		CHANNELS 3 Xrotation Yrotation Zrotation
		JOINT Spine1
		{
			OFFSET -0.002067 5.816869 0.032633
			CHANNELS 3 Xrotation Yrotation Zrotation
			JOINT Spine1_split
			{
				OFFSET -0.002067 5.816869 0.032633
				CHANNELS 3 Xrotation Yrotation Zrotation
				JOINT Spine2
				{
					OFFSET -0.002067 5.816869 0.032633
					CHANNELS 3 Xrotation Yrotation Zrotation
					JOINT Neck
					{
						OFFSET -0.003700 21.199493 -0.826900
						CHANNELS 3 Xrotation Yrotation Zrotation
						JOINT Head
						{
							OFFSET 0.000000 20.442200 4.834800
							CHANNELS 3 Xrotation Yrotation Zrotation
							JOINT HeadTop_End
							{
								OFFSET 0.000000 34.668396 4.968400
								CHANNELS 3 Xrotation Yrotation Zrotation
								End Site
								{
									OFFSET 0.000000 0.000000 0.000000
								}
							}
						}
					}
					JOINT LeftShoulder
					{
						OFFSET 3.288150 8.794197 -1.372250
						CHANNELS 3 Xrotation Yrotation Zrotation
						JOINT LeftShoulder_split
						{
							OFFSET 3.288150 8.794197 -1.372250
							CHANNELS 3 Xrotation Yrotation Zrotation
							JOINT LeftArm
							{
								OFFSET 11.953299 -2.279007 -0.146200
								CHANNELS 3 Xrotation Yrotation Zrotation
								JOINT LeftForeArm
								{
									OFFSET 18.448900 0.000000 0.000000
									CHANNELS 3 Xrotation Yrotation Zrotation
									JOINT LeftHand
									{
										OFFSET 29.527798 0.000000 0.000000
										CHANNELS 3 Xrotation Yrotation Zrotation
										JOINT LeftHandThumb1
										{
											OFFSET 10.739754 -2.369614 9.225399
											CHANNELS 3 Xrotation Yrotation Zrotation
											JOINT LeftHandThumb2
											{
												OFFSET 4.926170 -2.844131 2.844125
												CHANNELS 3 Xrotation Yrotation Zrotation
												JOINT LeftHandThumb3
												{
													OFFSET 4.614891 -2.664413 2.664409
													CHANNELS 3 Xrotation Yrotation Zrotation
													JOINT LeftHandThumb4
													{
														OFFSET 4.432465 -2.559082 2.559083
														CHANNELS 3 Xrotation Yrotation Zrotation
														End Site
														{
															OFFSET 0.000000 0.000000 0.000000
														}
													}
												}
											}
										}
										JOINT LeftHandIndex1
										{
											OFFSET 26.467674 0.187653 6.405298
											CHANNELS 3 Xrotation Yrotation Zrotation
											JOINT LeftHandIndex2
											{
												OFFSET 8.792900 0.000000 0.000000
												CHANNELS 3 Xrotation Yrotation Zrotation
												JOINT LeftHandIndex3
												{
													OFFSET 10.075203 0.000000 0.000000
													CHANNELS 3 Xrotation Yrotation Zrotation
													End Site
													{
														OFFSET 0.000000 0.000000 0.000000
													}
												}
											}
										}
										JOINT LeftHandMiddle1
										{
											OFFSET 25.764404 0.000000 0.000000
											CHANNELS 3 Xrotation Yrotation Zrotation
											JOINT LeftHandMiddle2
											{
												OFFSET 9.393974 0.000000 0.000000
												CHANNELS 3 Xrotation Yrotation Zrotation
												JOINT LeftHandMiddle3
												{
													OFFSET 10.771950 0.000000 0.000000
													CHANNELS 3 Xrotation Yrotation Zrotation
													End Site
													{
														OFFSET 0.000000 0.000000 0.000000
													}
												}
											}
										}
										JOINT LeftHandRing1
										{
											OFFSET 24.660927 0.144547 -6.225808
											CHANNELS 3 Xrotation Yrotation Zrotation
											JOINT LeftHandRing2
											{
												OFFSET 9.393799 0.000000 0.000000
												CHANNELS 3 Xrotation Yrotation Zrotation
												JOINT LeftHandRing3
												{
													OFFSET 9.928497 0.000000 0.000000
													CHANNELS 3 Xrotation Yrotation Zrotation
													End Site
													{
														OFFSET 0.000000 0.000000 0.000000
													}
												}
											}
										}
										JOINT LeftHandPinky1
										{
											OFFSET 23.655350 0.125290 -12.815412
											CHANNELS 3 Xrotation Yrotation Zrotation
											JOINT LeftHandPinky2
											{
												OFFSET 8.425102 0.000000 0.000000
												CHANNELS 3 Xrotation Yrotation Zrotation
												JOINT LeftHandPinky3
												{
													OFFSET 8.147003 0.000000 0.000000
													CHANNELS 3 Xrotation Yrotation Zrotation
													End Site
													{
														OFFSET 0.000000 0.000000 0.000000
													}
												}
											}
										}
									}
								}
							}
						}
					}
					JOINT RightShoulder
					{
						OFFSET -3.249400 8.794197 -1.372250
						CHANNELS 3 Xrotation Yrotation Zrotation
						JOINT RightShoulder_split
						{
							OFFSET -3.249400 8.794197 -1.372250
							CHANNELS 3 Xrotation Yrotation Zrotation
							JOINT RightArm
							{
								OFFSET -11.953299 -2.279007 -0.146200
								CHANNELS 3 Xrotation Yrotation Zrotation
								JOINT RightForeArm
								{
									OFFSET -18.448900 0.000000 0.000000
									CHANNELS 3 Xrotation Yrotation Zrotation
									JOINT RightHand
									{
										OFFSET -29.527802 0.000000 0.000000
										CHANNELS 3 Xrotation Yrotation Zrotation
										JOINT RightHandThumb1
										{
											OFFSET -10.739754 -2.369614 9.225399
											CHANNELS 3 Xrotation Yrotation Zrotation
											JOINT RightHandThumb2
											{
												OFFSET -4.926170 -2.844131 2.844125
												CHANNELS 3 Xrotation Yrotation Zrotation
												JOINT RightHandThumb3
												{
													OFFSET -4.614891 -2.664413 2.664409
													CHANNELS 3 Xrotation Yrotation Zrotation
													JOINT RightHandThumb4
													{
														OFFSET -4.432465 -2.559082 2.559083
														CHANNELS 3 Xrotation Yrotation Zrotation
														End Site
														{
															OFFSET 0.000000 0.000000 0.000000
														}
													}
												}
											}
										}
										JOINT RightHandIndex1
										{
											OFFSET -26.467674 0.187653 6.405298
											CHANNELS 3 Xrotation Yrotation Zrotation
											JOINT RightHandIndex2
											{
												OFFSET -8.792900 0.000000 0.000000
												CHANNELS 3 Xrotation Yrotation Zrotation
												JOINT RightHandIndex3
												{
													OFFSET -10.075203 0.000000 0.000000
													CHANNELS 3 Xrotation Yrotation Zrotation
													End Site
													{
														OFFSET 0.000000 0.000000 0.000000
													}
												}
											}
										}
										JOINT RightHandMiddle1
										{
											OFFSET -25.764404 0.000000 0.000000
											CHANNELS 3 Xrotation Yrotation Zrotation
											JOINT RightHandMiddle2
											{
												OFFSET -9.393974 0.000000 0.000000
												CHANNELS 3 Xrotation Yrotation Zrotation
												JOINT RightHandMiddle3
												{
													OFFSET -10.771950 0.000000 0.000000
													CHANNELS 3 Xrotation Yrotation Zrotation
													End Site
													{
														OFFSET 0.000000 0.000000 0.000000
													}
												}
											}
										}
										JOINT RightHandRing1
										{
											OFFSET -24.660927 0.144547 -6.225808
											CHANNELS 3 Xrotation Yrotation Zrotation
											JOINT RightHandRing2
											{
												OFFSET -9.393799 0.000000 0.000000
												CHANNELS 3 Xrotation Yrotation Zrotation
												JOINT RightHandRing3
												{
													OFFSET -9.928497 0.000000 0.000000
													CHANNELS 3 Xrotation Yrotation Zrotation
													End Site
													{
														OFFSET 0.000000 0.000000 0.000000
													}
												}
											}
										}
										JOINT RightHandPinky1
										{
											OFFSET -23.655350 0.125290 -12.815412
											CHANNELS 3 Xrotation Yrotation Zrotation
											JOINT RightHandPinky2
											{
												OFFSET -8.425102 0.000000 0.000000
												CHANNELS 3 Xrotation Yrotation Zrotation
												JOINT RightHandPinky3
												{
													OFFSET -8.147003 0.000000 0.000000
													CHANNELS 3 Xrotation Yrotation Zrotation
													End Site
													{
														OFFSET 0.000000 0.000000 0.000000
													}
												}
											}
										}
									}
								}
							}
						}
					}
				}
			}
		}
	}
	JOINT LeftUpLeg
	{
		OFFSET 11.394100 -6.187798 -0.413800
		CHANNELS 3 Xrotation Yrotation Zrotation
		JOINT LeftLeg
		{
			OFFSET 0.430247 -32.302673 3.732800
			CHANNELS 3 Xrotation Yrotation Zrotation
			JOINT LeftFoot
			{
				OFFSET -0.430247 -48.264931 -6.423300
				CHANNELS 3 Xrotation Yrotation Zrotation
				JOINT LeftToeBase
				{
					OFFSET 4.230900 -16.068199 23.438400
					CHANNELS 3 Xrotation Yrotation Zrotation
					JOINT LeftToe_End
					{
						OFFSET 4.510700 0.695400 19.974600
						CHANNELS 3 Xrotation Yrotation Zrotation
						End Site
						{
							OFFSET 0.000000 0.000000 0.000000
						}
					}
				}
			}
		}
	}
	JOINT RightUpLeg
	{
		OFFSET -11.333700 -6.187798 -0.413800
		CHANNELS 3 Xrotation Yrotation Zrotation
		JOINT RightLeg
		{
			OFFSET -0.430392 -32.302628 3.733000
			CHANNELS 3 Xrotation Yrotation Zrotation
			JOINT RightFoot
			{
				OFFSET 0.430392 -48.264973 -6.423500
				CHANNELS 3 Xrotation Yrotation Zrotation
				JOINT RightToeBase
				{
					OFFSET -4.230900 -16.068199 23.438400
					CHANNELS 3 Xrotation Yrotation Zrotation
					JOINT RightToe_End
					{
						OFFSET -4.510700 0.695400 19.974600
						CHANNELS 3 Xrotation Yrotation Zrotation
						End Site
						{
							OFFSET 0.000000 0.000000 0.000000
						}
					}
				}
			}
		}
	}
}
MOTION
Frames: 4
Frame Time: 0.016667
7.063650 95.661110 -13.611280 12.690484 9.334397 -0.858601 4.501402 -1.346267 0.260889 1.564959 -2.658698 2.901395 0.000000 0.000000 0.000000 1.574393 -2.667813 2.901702 -3.216333 0.566821 2.708978 -15.707439 0.827951 3.034335 0.000000 0.000000 0.000000 0.124290 -1.541123 2.568618 0.000000 0.000000 0.000000 -46.523871 -11.866262 -46.983908 0.000003 -112.648186 -0.000008 -69.625760 -13.116140 -10.477693 10.871960 24.431628 7.994431 2.368885 5.209905 -0.238693 -7.180095 -0.217038 13.332278 -0.000000 -0.000002 -0.000001 9.213468 7.430022 -85.046503 5.044722 5.795416 -82.065365 0.000000 0.000001 -0.000001 3.117067 7.733751 -77.810669 3.450920 5.337696 -65.744860 -0.000001 0.000001 -0.000000 2.981568 8.002563 -85.786186 3.085023 5.157979 -61.746051 -0.000001 0.000001 -0.000001 -0.595392 11.406703 -86.448154 6.485212 5.816715 -96.232776 0.000002 -0.000001 -0.000000 -1.082562 -10.880360 5.337836 0.000000 0.000000 0.000000 -47.164915 8.617418 48.689557 0.000049 120.211165 -0.000046 -63.342191 15.367429 21.209071 3.592560 -16.454962 -11.549597 2.790449 -6.737070 -0.669432 -5.037090 -6.511794 -15.212327 -0.000001 0.000000 -0.000000 -0.566153 0.330603 80.510220 3.774808 -4.573007 79.066775 -0.000001 -0.000001 -0.000000 -2.294817 -4.464807 67.849610 2.486306 -4.121257 62.190252 0.000002 -0.000000 -0.000001 -2.842472 -5.033203 74.536666 2.011860 -3.834318 55.359028 -0.000001 -0.000003 0.000001 -12.727982 -6.563313 69.830222 4.358519 -4.647603 86.319302 0.000000 -0.000001 0.000001 -21.753963 12.158564 12.888750 51.127743 2.565234 2.495206 -0.779577 -1.073715 -11.840526 -35.277032 0.516564 -5.846027 0.000000 -0.000002 0.000000 -47.999243 -5.377692 -7.814448 43.982914 -2.029979 3.128654 -3.596194 2.043379 -0.899465 -5.101163 0.000015 -0.000288 0.000000 0.000000 0.000000 
7.005241 95.802505 -14.777792 14.010354 9.380227 -1.554810 3.836045 -1.011670 1.069063 3.030180 -2.333154 2.316412 0.000000 0.000000 0.000000 3.025688 -2.337050 2.305679 -3.373857 0.744375 1.970034 -20.406068 -0.736912 4.010717 0.000000 0.000000 0.000000 0.226638 -3.126610 5.972561 0.000000 0.000000 0.000000 -55.645510 -11.976968 -43.754506 0.000105 -110.514735 0.000113 -73.310230 -11.632526 -11.828139 10.262771 23.809201 8.306468 2.383000 5.227095 -0.226541 -7.162236 -0.193211 13.353367 -0.000000 -0.000002 0.000001 8.714104 7.285022 -84.272103 4.989416 5.787494 -81.517133 0.000000 0.000004 -0.000001 2.612492 7.606771 -77.289382 3.418797 5.323155 -65.399136 0.000002 0.000003 0.000000 2.429906 7.945379 -85.449341 3.065056 5.147229 -61.523831 -0.000003 0.000000 0.000003 -1.236635 10.924686 -86.368145 6.459707 5.819434 -95.981186 0.000001 -0.000001 -0.000002 -1.787725 -12.486583 1.915338 0.000000 0.000000 0.000000 -57.494128 10.708993 49.479939 0.000006 115.866509 -0.000007 -69.261164 14.057516 21.653308 4.492002 -16.714718 -11.255546 2.794862 -6.734288 -0.676039 -4.984103 -6.626289 -15.268072 0.000001 -0.000002 -0.000001 0.329282 0.086555 80.589450 3.789518 -4.575814 79.251184 -0.000003 0.000002 -0.000001 -1.397287 -4.849276 68.072199 2.481677 -4.118813 62.125843 -0.000001 -0.000003 0.000000 -2.514217 -5.055785 73.935083 1.988866 -3.818388 55.014592 0.000000 -0.000000 0.000001 -12.704632 -6.509667 68.593397 4.286015 -4.642391 85.423851 -0.000003 -0.000000 -0.000000 -29.469568 10.600916 14.821456 57.294997 -0.210424 0.722520 7.081938 -2.196950 -7.112548 -43.214788 3.320350 -6.509808 -0.000000 -0.000001 0.000000 -49.432026 -5.279980 -6.845556 47.697000 -2.713480 2.971688 -3.970914 2.114835 -1.325539 -7.885623 -0.016173 0.442736 0.000000 -0.000000 0.000000 
6.927011 95.632027 -15.830532 15.001469 9.187008 -2.049722 3.412980 -0.755734 1.705355 4.511554 -2.087239 1.761739 0.000000 0.000000 0.000000 4.497379 -2.087713 1.743153 -3.569845 0.950903 1.228297 -24.802198 -2.130054 5.138539 -0.000000 -0.000000 0.000000 0.283905 -4.204905 10.156134 0.000000 0.000000 0.000000 -64.274792 -8.933954 -40.664190 -0.000041 -108.101855 -0.000039 -77.039486 -10.296166 -13.415696 9.409451 23.501786 8.676168 2.397552 5.244810 -0.214009 -7.143693 -0.168687 13.375308 0.000001 0.000000 0.000003 8.148815 7.258560 -83.446935 4.952695 5.781922 -81.152708 0.000001 -0.000002 0.000000 2.062253 7.456944 -76.699835 3.403259 5.316050 -65.231592 -0.000001 0.000000 0.000001 1.826220 7.873418 -85.043348 3.060743 5.144904 -61.475664 0.000001 0.000002 -0.000002 -1.938278 10.498825 -86.218161 6.449995 5.820438 -95.885454 -0.000001 -0.000001 -0.000000 -2.697553 -14.467632 -1.739101 0.000000 0.000000 0.000000 -67.851782 8.072132 51.708866 0.000070 110.708467 -0.000062 -75.665806 13.174095 22.239832 5.568555 -16.817346 -10.745278 2.799337 -6.731147 -0.682845 -4.929030 -6.745471 -15.326063 -0.000000 0.000001 0.000003 1.693623 -0.297640 81.040632 3.833131 -4.583839 79.797421 0.000000 0.000001 -0.000001 -0.350503 -5.321346 68.847801 2.503180 -4.130078 62.424910 -0.000001 -0.000000 -0.000002 -2.233227 -5.138392 73.955116 1.991459 -3.820174 55.053408 -0.000002 0.000000 0.000001 -12.916601 -6.321058 68.072145 4.244239 -4.638855 84.907577 -0.000001 0.000002 0.000000 -36.087011 9.546283 15.602590 61.791676 -3.488039 -0.410043 16.781467 -2.570338 -0.717228 -51.801131 9.888576 -7.161494 0.000001 0.000001 0.000000 -50.389471 -5.145644 -5.862605 51.976818 -3.737196 2.785380 -5.067737 2.204930 -1.915791 -10.976243 -0.001813 0.524962 0.000000 0.000000 -0.000000 
6.800636 95.142578 -16.765179 15.064916 8.791246 -2.166041 4.256502 -0.633782 1.929273 5.525780 -2.007906 1.460072 0.000000 0.000000 0.000000 5.510000 -2.001089 1.443115 -3.821981 1.179405 0.529720 -28.309543 -3.166417 6.680834 -0.000000 0.000000 -0.000000 0.256372 -4.260465 17.532850 0.000000 0.000000 0.000000 -70.525077 -4.093746 -37.545099 -0.000003 -104.831376 -0.000008 -79.041073 -8.916931 -14.856355 8.253711 23.483874 9.167652 2.412684 5.263038 -0.200985 -7.124473 -0.143368 13.398065 0.000000 -0.000003 0.000002 7.606509 7.261692 -82.565772 4.989921 5.787561 -81.522139 0.000001 -0.000002 -0.000001 1.559668 7.302393 -76.019391 3.452990 5.338606 -65.767120 0.000002 -0.000001 0.000002 1.313999 7.794550 -84.538570 3.114018 5.173386 -62.068156 0.000001 0.000001 0.000000 -2.493203 10.178175 -85.864972 6.496539 5.815457 -96.344756 -0.000001 -0.000001 0.000001 -4.311118 -16.380942 -8.167935 0.000000 0.000000 0.000000 -75.846669 5.206698 53.753500 -0.000015 104.624373 0.000010 -76.793613 12.678114 22.126015 6.396757 -16.596226 -10.143348 2.803931 -6.727506 -0.689983 -4.871929 -6.869329 -15.386207 -0.000000 -0.000000 -0.000000 3.111523 -0.689709 81.602982 3.886282 -4.593063 80.461841 0.000001 -0.000001 0.000000 0.498740 -5.717459 70.203778 2.541276 -4.149710 62.952590 -0.000002 -0.000002 0.000002 -2.066104 -5.239514 74.468186 2.014221 -3.835948 55.394357 0.000000 0.000002 -0.000003 -13.284493 -6.125459 68.253766 4.233991 -4.637957 84.780693 -0.000002 -0.000004 0.000000 -42.737088 8.084306 16.454781 69.745425 -3.631587 -0.605475 20.612247 -2.017256 4.182906 -48.148677 13.757078 -11.336955 0.000000 -0.000005 0.000001 -49.701255 -4.894155 -4.925376 55.324792 -4.990156 2.401743 -7.337993 2.251352 -2.077257 -16.446923 -0.000000 -0.000001 0.000000 -0.000000 -0.000000 
